<?xml version="1.0" encoding="UTF-8" standalone="no"?>
<svg
   sodipodi:docname="21 - Bellboy.svg"
   inkscape:version="1.1.1 (1:1.1+202109281949+c3084ef5ed)"
   id="svg831"
   version="1.1"
   viewBox="0 0 22.577778 22.577778"
   height="64pt"
   width="64pt"
   inkscape:export-filename="/media/taufikramadhan/Data/Tr Design Studio/Project Design/TR Creative Design/Icon Design/Project Hiring/Icon Icons/009 -  Hotel And Holidays/Send/3 - Flat/SVG/21 - Bellboy.png"
   inkscape:export-xdpi="576"
   inkscape:export-ydpi="576"
   xmlns:inkscape="http://www.inkscape.org/namespaces/inkscape"
   xmlns:sodipodi="http://sodipodi.sourceforge.net/DTD/sodipodi-0.dtd"
   xmlns="http://www.w3.org/2000/svg"
   xmlns:svg="http://www.w3.org/2000/svg"
   xmlns:rdf="http://www.w3.org/1999/02/22-rdf-syntax-ns#"
   xmlns:cc="http://creativecommons.org/ns#"
   xmlns:dc="http://purl.org/dc/elements/1.1/">
  <defs
     id="defs825">
    <pattern
       y="0"
       x="0"
       height="6"
       width="6"
       patternUnits="userSpaceOnUse"
       id="EMFhbasepattern" />
    <pattern
       y="0"
       x="0"
       height="6"
       width="6"
       patternUnits="userSpaceOnUse"
       id="EMFhbasepattern-9" />
    <pattern
       y="0"
       x="0"
       height="6"
       width="6"
       patternUnits="userSpaceOnUse"
       id="EMFhbasepattern-0" />
    <pattern
       y="0"
       x="0"
       height="6"
       width="6"
       patternUnits="userSpaceOnUse"
       id="EMFhbasepattern-7" />
    <pattern
       y="0"
       x="0"
       height="6"
       width="6"
       patternUnits="userSpaceOnUse"
       id="EMFhbasepattern-2" />
    <pattern
       y="0"
       x="0"
       height="6"
       width="6"
       patternUnits="userSpaceOnUse"
       id="EMFhbasepattern-98" />
    <pattern
       y="0"
       x="0"
       height="6"
       width="6"
       patternUnits="userSpaceOnUse"
       id="EMFhbasepattern-6" />
    <pattern
       y="0"
       x="0"
       height="6"
       width="6"
       patternUnits="userSpaceOnUse"
       id="EMFhbasepattern-01" />
    <pattern
       y="0"
       x="0"
       height="6"
       width="6"
       patternUnits="userSpaceOnUse"
       id="EMFhbasepattern-07" />
    <pattern
       y="0"
       x="0"
       height="6"
       width="6"
       patternUnits="userSpaceOnUse"
       id="EMFhbasepattern-8" />
    <pattern
       y="0"
       x="0"
       height="6"
       width="6"
       patternUnits="userSpaceOnUse"
       id="EMFhbasepattern-4" />
    <pattern
       y="0"
       x="0"
       height="6"
       width="6"
       patternUnits="userSpaceOnUse"
       id="EMFhbasepattern-40" />
    <pattern
       y="0"
       x="0"
       height="6"
       width="6"
       patternUnits="userSpaceOnUse"
       id="EMFhbasepattern-08" />
    <pattern
       y="0"
       x="0"
       height="6"
       width="6"
       patternUnits="userSpaceOnUse"
       id="EMFhbasepattern-04" />
    <pattern
       y="0"
       x="0"
       height="6"
       width="6"
       patternUnits="userSpaceOnUse"
       id="EMFhbasepattern-014" />
    <pattern
       y="0"
       x="0"
       height="6"
       width="6"
       patternUnits="userSpaceOnUse"
       id="EMFhbasepattern-27" />
    <pattern
       y="0"
       x="0"
       height="6"
       width="6"
       patternUnits="userSpaceOnUse"
       id="EMFhbasepattern-09" />
    <pattern
       y="0"
       x="0"
       height="6"
       width="6"
       patternUnits="userSpaceOnUse"
       id="EMFhbasepattern-5" />
    <pattern
       y="0"
       x="0"
       height="6"
       width="6"
       patternUnits="userSpaceOnUse"
       id="EMFhbasepattern-018" />
  </defs>
  <sodipodi:namedview
     inkscape:document-rotation="0"
     inkscape:snap-global="true"
     inkscape:snap-nodes="false"
     inkscape:bbox-nodes="true"
     inkscape:snap-bbox="true"
     showguides="false"
     inkscape:snap-midpoints="true"
     inkscape:snap-smooth-nodes="true"
     inkscape:snap-intersection-paths="true"
     inkscape:object-paths="true"
     inkscape:showpageshadow="false"
     inkscape:pagecheckerboard="true"
     inkscape:window-maximized="1"
     inkscape:window-y="31"
     inkscape:window-x="0"
     inkscape:window-height="705"
     inkscape:window-width="1366"
     units="pt"
     showgrid="false"
     inkscape:current-layer="layer1"
     inkscape:document-units="pt"
     inkscape:cy="43.228498"
     inkscape:cx="39.063252"
     inkscape:zoom="4.4415145"
     inkscape:pageshadow="2"
     inkscape:pageopacity="0.0"
     borderopacity="1.0"
     bordercolor="#666666"
     pagecolor="#ffffff"
     id="base">
    <inkscape:grid
       id="grid1378"
       type="xygrid" />
    <sodipodi:guide
       inkscape:locked="false"
       id="guide1380"
       orientation="78.000048,0"
       position="0.97013831,21.607643" />
    <sodipodi:guide
       inkscape:locked="false"
       id="guide1382"
       orientation="0,78.000005"
       position="0.97013831,0.97013129" />
    <sodipodi:guide
       inkscape:locked="false"
       id="guide1384"
       orientation="-78.000048,0"
       position="21.607639,0.97013129" />
    <sodipodi:guide
       inkscape:locked="false"
       id="guide1386"
       orientation="0,-78.000005"
       position="21.607639,21.607643" />
  </sodipodi:namedview>
  <metadata
     id="metadata828">
    <rdf:RDF>
      <cc:Work
         rdf:about="">
        <dc:format>image/svg+xml</dc:format>
        <dc:type
           rdf:resource="http://purl.org/dc/dcmitype/StillImage" />
      </cc:Work>
    </rdf:RDF>
  </metadata>
  <g
     transform="translate(0,-274.42223)"
     id="layer1"
     inkscape:groupmode="layer"
     inkscape:label="Icon">
    <g
       id="g1706"
       style="display:inline;stroke-width:0.794878"
       transform="matrix(1.2580549,0,0,1.2580549,-114.48589,-38.905128)">
      <path
         style="color:#000000;fill:#dc1c4b;stroke-width:0.794878;stroke-linecap:round;stroke-linejoin:round;stroke-miterlimit:1.5;-inkscape-stroke:none"
         d="m 98.916016,249.82812 c -1.021477,0 -1.851563,0.83009 -1.851563,1.85157 v 1.58789 a 0.26460996,0.26460996 0 0 0 0.265625,0.26562 h 5.291012 a 0.26460996,0.26460996 0 0 0 0.26368,-0.26562 v -1.58789 c 0,-1.02148 -0.8301,-1.85157 -1.85157,-1.85157 z"
         id="path129652" />
      <path
         style="color:#000000;fill:#ef937e;stroke-width:0.794878;stroke-linecap:round;stroke-linejoin:round;stroke-miterlimit:1.5;-inkscape-stroke:none"
         d="m 98.652344,257.23633 a 0.26460996,0.26460996 0 0 0 -0.263672,0.26562 v 1.85157 a 0.26460996,0.26460996 0 0 0 0.15625,0.24218 l 1.322265,0.58789 a 0.26460996,0.26460996 0 0 0 0.214843,0 l 1.32422,-0.58789 a 0.26460996,0.26460996 0 0 0 0.15625,-0.24218 v -1.85157 a 0.26460996,0.26460996 0 0 0 -0.26367,-0.26562 z"
         id="path129658" />
      <path
         style="color:#000000;fill:#f8c09d;stroke-width:0.794878;stroke-linecap:round;stroke-linejoin:round;stroke-miterlimit:1.5;-inkscape-stroke:none"
         d="m 97.330078,252.83594 a 0.26460996,0.26460996 0 0 0 -0.265625,0.26562 v 0.96094 c -0.581365,0 -1.058594,0.47527 -1.058594,1.05664 0,0.58137 0.477229,1.05859 1.058594,1.05859 0.04853,-2e-5 0.09471,-0.0188 0.142578,-0.0254 0.251149,1.20039 1.229805,2.14258 2.503906,2.14258 h 0.529293 c 1.27415,0 2.25281,-0.94212 2.50391,-2.14258 0.0474,0.007 0.0926,0.0253 0.14063,0.0254 0.58136,0 1.05859,-0.47722 1.05859,-1.05859 0,-0.58137 -0.47723,-1.05664 -1.05859,-1.05664 v -0.96094 a 0.26460996,0.26460996 0 0 0 -0.26368,-0.26562 z"
         id="path129664" />
      <path
         id="path139008"
         style="color:#000000;fill:#ef937e;fill-opacity:1;stroke-width:0.794878;stroke-linecap:round;stroke-linejoin:round;stroke-miterlimit:1.5;-inkscape-stroke:none"
         d="m 97.064361,253.10138 v 0.96118 c -0.137117,0 -0.268485,0.0264 -0.389122,0.0744 0.02701,0.0306 0.05742,0.0581 0.09043,0.0816 0.139486,0.0996 0.315445,0.16111 0.564306,0.21291 0.497721,0.10362 1.299814,0.1602 2.644799,0.1602 0.431416,0 0.806316,-0.006 1.133076,-0.0173 0.67523,-0.0236 1.18291,0.45295 1.13746,1.12739 l -0.0304,0.45055 c -0.2511,1.20046 -1.22957,2.1425 -2.503725,2.1425 h 0.529175 c 1.27414,0 2.25262,-0.94204 2.50372,-2.1425 l 0.14056,-2.0898 v -0.96118 z"
         sodipodi:nodetypes="cccscscccscccc" />
      <path
         id="path154087"
         style="color:#000000;fill:#a31d42;fill-opacity:1;stroke-width:0.794878;stroke-linecap:round;stroke-linejoin:round;stroke-miterlimit:1.5;-inkscape-stroke:none"
         d="m 98.915929,249.82819 c -0.645734,0 -1.214744,0.33196 -1.546159,0.83406 0.292063,-0.19265 0.641459,-0.30489 1.016992,-0.30489 h 2.117178 c 1.02148,0 1.85157,0.83009 1.85157,1.85157 v 1.32447 h 0.26562 a 0.26460996,0.26460996 0 0 0 0.26355,-0.26562 v -1.58802 c 0,-1.02148 -0.8301,-1.85157 -1.85157,-1.85157 z" />
      <path
         style="color:#000000;fill:#febe40;stroke-width:0.794878;stroke-linecap:round;stroke-linejoin:round;stroke-miterlimit:1.5;-inkscape-stroke:none"
         d="m 97.330078,252.47461 c -0.435161,0 -0.794922,0.35781 -0.794922,0.79297 0,0.14859 0.09098,0.32227 0.230469,0.42187 0.139487,0.0996 0.315593,0.16109 0.564453,0.21289 0.497721,0.10362 1.299545,0.16016 2.644531,0.16016 1.344981,0 2.146811,-0.0565 2.644531,-0.16016 0.24886,-0.0518 0.42497,-0.11328 0.56445,-0.21289 0.13949,-0.0996 0.23047,-0.27328 0.23047,-0.42187 0,-0.43516 -0.3578,-0.79297 -0.79297,-0.79297 z"
         id="path129670" />
      <path
         style="color:#000000;fill:#febe40;stroke-width:0.794878;stroke-linecap:round;stroke-linejoin:round;stroke-miterlimit:1.5;-inkscape-stroke:none"
         d="m 99.445312,251.15039 a 0.2645835,0.2645835 0 0 0 -0.263671,0.26563 0.2645835,0.2645835 0 0 0 0.263671,0.26367 h 1.058598 a 0.2645835,0.2645835 0 0 0 0.26562,-0.26367 0.2645835,0.2645835 0 0 0 -0.26562,-0.26563 z"
         id="path129676" />
      <path
         style="color:#000000;fill:#dc1c4b;stroke-width:0.794878;stroke-linecap:round;stroke-linejoin:round;stroke-miterlimit:1.5;-inkscape-stroke:none"
         d="m 98.568359,258.57227 -0.769531,0.25781 c -1.778966,0.41053 -2.910701,1.33689 -3.566406,2.59179 -0.655705,1.25491 -0.85189,2.81609 -0.871094,4.54297 a 0.26460996,0.26460996 0 0 0 0.263672,0.26758 h 12.70117 a 0.26460996,0.26460996 0 0 0 0.26367,-0.26758 c -0.0192,-1.72688 -0.21539,-3.28806 -0.87109,-4.54297 -0.6557,-1.2549 -1.78744,-2.18126 -3.56641,-2.59179 l -0.77148,-0.25781 a 0.26460996,0.26460996 0 0 0 -0.24609,0.043 l -1.160161,0.90235 -1.160156,-0.90235 a 0.26460996,0.26460996 0 0 0 -0.246094,-0.043 z"
         id="path129682" />
      <path
         id="path157788"
         style="color:#000000;fill:#a31d42;fill-opacity:1;stroke-width:0.794878;stroke-linecap:round;stroke-linejoin:round;stroke-miterlimit:1.5;-inkscape-stroke:none"
         d="m 101.29563,258.55893 c -0.0583,5.5e-4 -0.11481,0.0204 -0.16071,0.0563 l -0.68162,0.5302 0.64079,0.21394 c 1.77897,0.41053 2.91049,1.33667 3.56619,2.59157 0.62236,1.1911 0.83061,2.65865 0.86662,4.28139 h 0.79943 c 0.14693,-5.8e-4 0.26526,-0.12076 0.26355,-0.26768 -0.0192,-1.72688 -0.21557,-3.28797 -0.87126,-4.54288 -0.65571,-1.2549 -1.78723,-2.18104 -3.5662,-2.59157 l -0.77152,-0.25787 c -0.0275,-0.009 -0.0563,-0.0136 -0.0853,-0.0134 z"
         sodipodi:nodetypes="ccccscccsccc" />
      <path
         id="path26534"
         style="color:#000000;fill:#a31d42;stroke-width:3.00426;stroke-linecap:round;stroke-linejoin:round;stroke-miterlimit:1.5;-inkscape-stroke:none"
         d="m 365.86133,-67.287109 a 1.0000006,1.0000006 0 0 0 -1.00391,1.003906 v 13 a 1.0000006,1.0000006 0 0 0 1.00391,0.996094 1.0000006,1.0000006 0 0 0 0.99609,-0.996094 v -9.589844 l 1.70508,-1.705078 a 1.0000006,1.0000006 0 0 0 0,-1.416016 1.0000006,1.0000006 0 0 0 -1.41016,0 l -0.29492,0.294922 v -0.583984 a 1.0000006,1.0000006 0 0 0 -0.99609,-1.003906 z"
         transform="matrix(0.26458334,0,0,0.26458334,0,280.06666)" />
      <path
         id="path27157"
         style="color:#000000;fill:#a31d42;fill-opacity:1;stroke-width:3.00426;stroke-linecap:round;stroke-linejoin:round;stroke-miterlimit:1.5;-inkscape-stroke:none"
         d="m 377.85547,-73.283203 a 1.0000006,1.0000006 0 0 0 -0.99609,0.996094 1.0000006,1.0000006 0 0 0 0.99609,1.003906 1.0000006,1.0000006 0 0 0 1.00391,-1.003906 1.0000006,1.0000006 0 0 0 -1.00391,-0.996094 z m 0,4 a 1.0000006,1.0000006 0 0 0 -0.99609,0.996094 1.0000006,1.0000006 0 0 0 0.99609,1.003906 1.0000006,1.0000006 0 0 0 1.00391,-1.003906 1.0000006,1.0000006 0 0 0 -1.00391,-0.996094 z m 0,4 a 1.0000006,1.0000006 0 0 0 -0.99609,0.998047 1.0000006,1.0000006 0 0 0 0.99609,1.003906 1.0000006,1.0000006 0 0 0 1.00391,-1.003906 1.0000006,1.0000006 0 0 0 -1.00391,-0.998047 z m 0,4 a 1.0000006,1.0000006 0 0 0 -0.99609,0.996094 1.0000006,1.0000006 0 0 0 0.99609,1.003906 1.0000006,1.0000006 0 0 0 1.00391,-1.003906 1.0000006,1.0000006 0 0 0 -1.00391,-0.996094 z m 0,3.996094 a 1.0000006,1.0000006 0 0 0 -0.99609,0.996093 1.0000006,1.0000006 0 0 0 0.99609,1.003907 1.0000006,1.0000006 0 0 0 1.00391,-1.003907 1.0000006,1.0000006 0 0 0 -1.00391,-0.996093 z"
         transform="matrix(0.26458334,0,0,0.26458334,0,280.06666)" />
      <path
         id="path29345"
         style="color:#000000;fill:#a31d42;stroke-width:3.00426;stroke-linecap:round;stroke-linejoin:round;stroke-miterlimit:1.5;-inkscape-stroke:none"
         d="m 389.85938,-67.287109 a 1.0000006,1.0000006 0 0 0 -1.00391,1.003906 v 0.576172 l -0.28711,-0.28711 a 1.0000006,1.0000006 0 0 0 -1.41797,0 1.0000006,1.0000006 0 0 0 0,1.416016 l 1.70508,1.705078 v 9.589844 a 1.0000006,1.0000006 0 0 0 1.00391,0.996094 1.0000006,1.0000006 0 0 0 0.99609,-0.996094 v -9.875 a 1.0000006,1.0000006 0 0 0 0,-0.255859 v -2.869141 a 1.0000006,1.0000006 0 0 0 -0.99609,-1.003906 z"
         transform="matrix(0.26458334,0,0,0.26458334,0,280.06666)" />
      <path
         style="color:#000000;fill:#a31d42;stroke-width:0.794878;stroke-linecap:round;stroke-linejoin:round;stroke-miterlimit:1.5;-inkscape-stroke:none"
         d="m 93.095703,265.70312 a 0.2645835,0.2645835 0 0 0 -0.263672,0.26563 0.2645835,0.2645835 0 0 0 0.263672,0.26367 h 13.757817 a 0.2645835,0.2645835 0 0 0 0.26562,-0.26367 0.2645835,0.2645835 0 0 0 -0.26562,-0.26563 z"
         id="path29981" />
      <path
         id="path23935"
         style="color:#000000;fill:#ec7523;fill-opacity:1;stroke-width:0.794878;stroke-linecap:round;stroke-linejoin:round;stroke-miterlimit:1.5;-inkscape-stroke:none"
         d="m 100.14268,260.05857 1.6707,-1.34152 -0.43253,-0.1447 c -0.0275,-0.009 -0.0563,-0.0136 -0.0853,-0.0134 l 5e-5,1e-5 c -0.0583,5.5e-4 -0.11481,0.0204 -0.16071,0.0563 l -1.160142,0.90227 z"
         sodipodi:nodetypes="cccccccc" />
      <path
         id="path23853"
         style="color:#000000;fill:#febe40;stroke-width:0.794878;stroke-linecap:round;stroke-linejoin:round;stroke-miterlimit:1.5;-inkscape-stroke:none"
         d="m 101.29873,265.70312 v -5.02753 c -5.3e-4,-0.0807 -0.0378,-0.15686 -0.10129,-0.2067 l -1.209226,-0.9617 -0.01344,0.0103 -1.160135,-0.90228 c -0.04604,-0.0361 -0.10274,-0.0559 -0.161231,-0.0563 h 5e-6 c -0.02897,-2.2e-4 -0.05777,0.004 -0.08527,0.0134 l -0.426331,0.14315 2.627748,2.08928 v 4.89833 z"
         sodipodi:nodetypes="ccccccssccccc" />
      <path
         id="path142780"
         style="color:#000000;fill:#ec7523;fill-opacity:1;stroke-width:0.794878;stroke-linecap:round;stroke-linejoin:round;stroke-miterlimit:1.5;-inkscape-stroke:none"
         d="m 97.329979,252.47454 c -0.383114,0 -0.707614,0.2775 -0.779798,0.64079 0.07904,-0.0266 0.163203,-0.0408 0.250632,-0.0408 h 5.291147 c 0.42384,0 0.77372,0.33941 0.79168,0.75913 0.11833,-0.0385 0.2158,-0.0842 0.29973,-0.14418 0.13949,-0.0996 0.23048,-0.27309 0.23048,-0.42168 0,-0.43516 -0.35755,-0.79324 -0.79272,-0.79324 z" />
    </g>
  </g>
</svg>
