<?xml version="1.0" standalone="no"?>
<!DOCTYPE svg PUBLIC "-//W3C//DTD SVG 20010904//EN"
 "http://www.w3.org/TR/2001/REC-SVG-20010904/DTD/svg10.dtd">
<svg version="1.0" xmlns="http://www.w3.org/2000/svg"
 width="1280.000000pt" height="1276.000000pt" viewBox="0 0 1280.000000 1276.000000"
 preserveAspectRatio="xMidYMid meet">
<metadata>
Created by potrace 1.15, written by Peter Selinger 2001-2017
</metadata>
<g transform="translate(0.000000,1276.000000) scale(0.100000,-0.100000)"
fill="#ff5722" stroke="none">
<path d="M7625 12750 c-684 -56 -1256 -280 -1780 -696 -153 -121 -492 -464
-585 -591 -427 -584 -827 -1645 -1170 -3099 -53 -225 -147 -665 -177 -828
l-18 -99 -230 -117 c-454 -230 -836 -443 -1050 -585 -207 -137 -332 -239 -506
-414 -260 -261 -380 -442 -433 -655 -42 -165 -44 -375 -7 -531 20 -82 81 -259
87 -253 2 2 -3 41 -11 86 -23 132 -34 344 -24 482 11 158 46 300 101 410 36
71 63 106 167 213 257 264 684 598 912 713 104 52 960 444 970 444 5 0 9 -31
9 -69 l0 -69 -52 -18 c-99 -32 -453 -176 -598 -244 -266 -122 -457 -238 -660
-398 -96 -75 -436 -410 -426 -419 2 -3 53 35 113 84 147 121 486 391 548 435
70 50 193 117 305 168 89 40 368 150 380 150 3 0 -29 -19 -70 -41 -191 -104
-260 -146 -325 -195 -133 -101 -131 -105 15 -29 225 119 397 200 485 228 88
29 246 70 250 65 1 -2 -32 -361 -74 -798 -43 -437 -76 -797 -73 -800 2 -3 19
12 36 32 l33 37 15 -33 c12 -24 35 -42 84 -69 109 -57 144 -105 144 -200 l0
-38 39 32 c52 42 102 46 218 20 51 -12 106 -21 123 -21 29 0 30 -1 24 -38 -3
-24 2 -60 15 -102 36 -113 25 -168 -43 -227 l-34 -31 54 -4 c71 -6 99 -27 153
-118 25 -41 61 -90 80 -109 l36 -35 -29 -31 c-16 -16 -47 -59 -70 -95 -45 -72
-94 -110 -139 -110 -26 0 -29 -3 -23 -23 22 -72 19 -137 -9 -214 -17 -45 -29
-99 -29 -129 l-1 -51 -38 5 c-21 2 -66 -2 -100 -11 -105 -27 -117 -28 -158
-17 -22 6 -58 27 -80 47 l-39 35 0 -43 c0 -75 -34 -114 -164 -190 -32 -19 -63
-44 -69 -56 -10 -22 -11 -21 -52 20 -23 23 -65 54 -93 69 l-51 27 -5 -47 c-32
-261 -91 -517 -300 -1294 -68 -255 -151 -569 -185 -698 -33 -129 -96 -368
-141 -530 -121 -440 -280 -1007 -287 -1026 -5 -13 -1 -15 23 -10 16 3 70 13
119 21 542 92 1122 235 1540 379 257 88 280 99 283 133 5 56 13 74 48 113 l36
40 -35 0 c-79 0 -116 28 -192 147 -29 44 -61 86 -71 91 -16 9 -15 12 12 35 17
14 50 63 74 108 55 102 82 121 163 117 60 -3 67 1 41 23 -22 18 -54 84 -54
111 0 13 7 55 15 93 8 39 15 96 15 129 0 52 2 57 18 51 39 -17 72 -15 166 9
65 17 111 24 133 20 32 -6 93 -55 93 -75 0 -5 5 -9 10 -9 6 0 10 20 10 44 0
54 29 99 95 146 27 19 71 56 99 81 l50 46 21 -31 c11 -17 41 -42 65 -55 124
-66 159 -109 160 -198 l0 -43 44 31 c53 38 106 41 212 15 39 -10 88 -16 109
-14 36 3 40 7 98 103 249 411 406 1088 449 1933 l12 242 44 -52 c74 -87 301
-308 392 -381 421 -339 845 -483 1155 -393 213 62 480 228 775 481 139 119
362 337 480 469 52 58 97 106 100 106 3 0 5 -156 6 -348 0 -256 5 -388 17
-502 60 -543 188 -988 381 -1330 293 -516 735 -974 1303 -1348 495 -325 1040
-515 1547 -539 116 -6 129 -5 123 10 -25 66 -138 447 -177 602 -27 105 -97
437 -155 740 -58 302 -124 634 -146 739 -123 589 -206 1195 -349 2561 -52 500
-70 646 -95 780 -16 88 -69 516 -140 1130 -256 2227 -367 3007 -480 3400 -217
748 -667 1443 -1361 2102 -260 246 -358 318 -578 424 -255 122 -544 199 -921
245 -154 18 -611 27 -770 14z m1611 -536 c521 -304 818 -539 999 -788 194
-266 394 -669 561 -1127 30 -83 53 -153 51 -156 -3 -2 -26 36 -52 84 -145 266
-303 532 -428 720 -78 116 -143 210 -145 209 -1 -2 23 -55 54 -119 50 -103 58
-129 79 -253 13 -76 23 -139 22 -141 -1 -1 -31 51 -66 115 -258 472 -451 698
-813 954 -48 34 -86 63 -84 65 9 10 227 -77 333 -132 69 -36 127 -64 128 -63
4 5 -214 202 -330 299 -142 118 -404 315 -620 464 -93 65 -174 123 -180 128
-19 19 342 -172 491 -259z m-1383 -846 c-167 -546 -405 -1030 -666 -1353 -137
-169 -357 -375 -585 -548 -125 -95 -415 -286 -542 -357 -52 -29 -110 -62 -127
-72 -18 -11 -33 -17 -33 -14 0 3 143 125 318 272 344 290 402 341 302 271 -36
-25 -105 -73 -155 -107 l-90 -61 140 135 c77 75 137 136 133 136 -4 0 -100
-50 -215 -110 l-208 -110 155 156 c85 86 145 151 133 145 -11 -6 -78 -45 -148
-86 -71 -42 -129 -74 -131 -73 -1 2 83 99 188 216 104 117 188 215 186 217 -1
2 -87 -59 -191 -136 -103 -76 -189 -139 -192 -139 -2 0 52 86 121 191 69 105
123 193 122 195 -2 2 -64 -32 -138 -74 -285 -164 -288 -177 33 144 158 159
319 330 359 379 82 105 407 537 433 578 31 48 28 22 -6 -44 -80 -159 -197
-409 -189 -404 5 3 66 71 136 150 69 80 128 145 130 145 3 0 -80 -179 -121
-260 -15 -29 -24 -54 -22 -56 2 -3 56 62 118 144 63 83 115 149 117 147 2 -2
-201 -367 -255 -457 -2 -5 -2 -8 0 -8 3 0 85 101 182 225 97 124 178 225 180
225 4 0 -93 -207 -144 -307 -17 -35 -29 -63 -27 -63 3 0 66 72 141 160 75 88
138 160 140 160 4 0 -76 -174 -130 -279 -20 -40 -35 -74 -33 -76 2 -1 137 197
301 441 165 244 300 444 302 444 2 0 -8 -37 -22 -82z m882 -95 c-26 -450 -47
-635 -104 -917 -11 -55 -19 -101 -17 -103 1 -2 36 80 76 182 40 102 74 184 75
183 2 -2 -21 -118 -51 -258 -30 -140 -53 -258 -51 -263 1 -4 56 118 122 272
66 153 121 275 123 270 2 -4 -20 -102 -48 -216 -95 -383 -202 -664 -348 -911
-68 -115 -101 -158 -89 -116 11 36 67 276 67 287 0 5 -57 -80 -126 -189 -69
-109 -130 -203 -136 -209 -12 -12 -10 -9 95 243 46 111 83 202 82 202 -2 0
-67 -91 -146 -202 -79 -111 -180 -240 -224 -286 -75 -80 -383 -337 -392 -328
-3 2 17 37 44 78 185 274 466 735 586 958 119 223 276 702 438 1338 13 50 25
92 27 92 2 0 1 -48 -3 -107z m-565 -305 c-301 -740 -603 -1262 -905 -1563
-242 -242 -682 -607 -1180 -982 -233 -174 -495 -365 -495 -359 0 2 82 75 183
162 703 612 1200 1092 1445 1398 241 299 568 783 888 1312 75 123 137 224 139
224 2 0 -32 -87 -75 -192z m755 -2813 c200 -244 433 -497 591 -640 l91 -83
-136 -6 c-405 -20 -715 -77 -881 -161 -27 -14 -52 -30 -55 -36 -9 -14 22 -56
57 -76 25 -16 27 -15 56 9 69 58 302 131 521 163 62 9 198 20 301 24 103 5
193 12 200 16 8 5 1 16 -22 36 l-33 28 164 1 c90 0 162 -3 158 -6 -3 -4 -56
-17 -118 -30 -61 -12 -113 -25 -115 -27 -17 -17 306 -212 574 -345 l212 -106
0 -51 c0 -168 -74 -618 -151 -930 -159 -635 -403 -1094 -905 -1696 -141 -170
-518 -553 -659 -671 -271 -226 -505 -371 -708 -440 -82 -28 -104 -31 -207 -31
-143 0 -240 27 -415 113 -280 137 -597 391 -894 714 -458 499 -682 859 -860
1380 -146 426 -260 1062 -261 1446 l0 85 136 28 137 28 106 -103 c180 -175
318 -278 418 -312 79 -27 217 -39 368 -32 227 11 233 22 15 28 -168 4 -204 8
-260 27 -200 70 -369 201 -499 389 -17 24 -19 33 -9 36 39 12 346 99 363 103
19 4 20 -1 21 -89 2 -122 28 -195 94 -259 91 -89 260 -113 384 -54 86 41 148
141 167 267 l11 77 32 -16 c80 -41 167 -143 211 -247 35 -83 59 -87 100 -16 5
10 82 78 170 151 368 303 499 434 622 616 103 152 138 212 244 418 49 94 89
162 89 153 0 -10 -11 -69 -24 -132 -39 -183 -103 -354 -186 -496 -23 -39 -223
-307 -446 -596 -222 -289 -404 -527 -404 -530 0 -6 289 240 469 401 193 171
434 413 499 500 138 187 362 628 528 1042 16 39 32 69 35 65 4 -4 51 -61 104
-127z m-1415 -278 c-23 -299 -75 -562 -154 -780 -43 -119 -135 -339 -146 -351
-5 -4 -16 7 -26 25 -103 202 -294 365 -485 414 -35 9 -65 18 -67 19 -1 2 30
24 69 50 82 55 73 54 250 6 149 -41 276 -88 308 -115 15 -13 32 -21 38 -17 14
9 53 87 53 106 0 19 -63 40 -293 95 l-187 46 124 112 c129 117 313 311 445
470 42 51 78 87 80 82 2 -6 -2 -79 -9 -162z m-1054 -784 c25 -33 13 -91 -25
-120 -42 -32 -123 0 -133 52 -6 29 -3 31 67 62 62 27 74 27 91 6z m-1210 -341
c6 -4 16 -16 22 -27 12 -25 29 -223 37 -440 l6 -160 -63 150 c-88 206 -154
343 -184 382 -22 29 -24 36 -12 50 32 39 159 69 194 45z m110 -2453 c19 -11
34 -28 34 -37 0 -14 10 -17 54 -17 30 0 57 -3 61 -7 14 -14 18 -88 5 -103 -10
-12 -9 -15 7 -15 12 0 30 -16 45 -39 l25 -38 -26 -32 c-14 -17 -32 -31 -39
-31 -9 0 -11 -7 -7 -20 10 -31 -15 -98 -39 -104 -35 -9 -71 -7 -84 6 -9 9 -12
8 -12 -4 0 -9 -18 -31 -40 -48 -22 -17 -40 -28 -40 -23 0 5 -13 17 -29 26 -17
10 -32 25 -35 35 -5 14 -15 16 -60 14 l-55 -4 -7 48 c-4 29 -3 54 4 65 9 14 7
18 -11 23 -12 3 -30 19 -40 36 -18 30 -18 32 0 63 11 18 28 33 39 35 18 3 20
9 16 61 l-4 58 52 7 c34 5 57 3 66 -5 11 -9 14 -8 14 4 0 13 55 66 69 67 2 0
19 -9 37 -21z m4798 -150 c20 -12 39 -32 42 -45 5 -18 10 -22 19 -14 7 6 31 7
57 4 45 -6 46 -7 51 -48 4 -28 1 -46 -9 -57 -13 -15 -13 -17 8 -23 13 -3 33
-22 45 -42 l23 -35 -22 -29 c-11 -16 -27 -31 -35 -34 -7 -3 -13 -16 -13 -28 0
-13 -5 -39 -10 -59 -9 -33 -15 -37 -52 -43 -24 -4 -45 -3 -52 4 -14 14 -26 13
-26 -4 0 -7 -16 -26 -35 -40 l-35 -27 -35 27 c-19 14 -35 35 -35 46 0 15 -4
17 -18 9 -10 -5 -36 -7 -59 -4 -40 5 -41 6 -47 51 -4 28 -2 50 6 59 9 11 7 15
-10 20 -12 3 -31 21 -42 40 l-21 35 26 34 c14 19 33 34 41 34 11 0 13 6 9 20
-4 12 -4 38 0 59 6 37 8 39 52 45 28 4 51 2 59 -5 11 -9 14 -8 14 0 0 10 58
71 67 71 1 0 18 -9 37 -21z m513 -1252 c36 -23 44 -34 49 -67 4 -23 9 -39 13
-38 59 31 63 32 120 20 31 -7 66 -12 77 -12 14 0 19 -8 21 -32 0 -18 4 -56 8
-85 7 -47 5 -54 -18 -77 -23 -23 -24 -26 -7 -26 37 0 66 -22 105 -83 l41 -62
-39 -58 c-27 -41 -46 -59 -66 -63 -27 -6 -28 -8 -23 -49 2 -26 -2 -62 -12 -91
-9 -26 -16 -57 -16 -69 0 -20 -7 -23 -62 -31 -83 -11 -107 -9 -140 16 l-28 21
0 -30 c0 -21 -10 -38 -35 -60 -20 -17 -39 -31 -44 -31 -5 0 -20 -11 -33 -25
-21 -21 -27 -23 -31 -10 -4 8 -28 28 -55 45 -48 29 -72 63 -72 101 0 19 -1 19
-29 -2 -26 -19 -34 -20 -80 -10 -29 6 -65 11 -80 11 -29 0 -29 0 -36 84 -5 62
-3 89 7 105 7 11 16 21 20 21 5 0 8 5 8 10 0 6 -13 10 -28 10 -29 0 -48 17
-109 97 -25 32 -29 42 -18 47 8 3 26 28 40 55 28 56 48 71 95 71 l31 0 -21 28
c-20 27 -21 32 -8 111 11 72 15 82 31 77 10 -2 40 2 65 10 66 20 89 18 117
-11 l25 -24 0 23 c0 30 21 56 85 105 48 36 51 37 70 22 11 -10 39 -29 62 -44z
m-4902 -83 c14 -9 25 -22 25 -28 0 -7 14 -10 41 -8 l40 4 -3 -38 c-2 -29 2
-44 20 -61 27 -27 28 -37 3 -62 -10 -10 -21 -35 -25 -55 -5 -27 -13 -37 -31
-42 -14 -3 -32 -4 -40 0 -8 3 -15 2 -15 -3 0 -5 -11 -16 -25 -25 -24 -16 -26
-16 -51 9 -17 17 -36 25 -58 25 -29 0 -34 4 -39 28 -3 15 -2 31 3 36 5 5 -1
17 -16 28 -29 24 -31 52 -4 75 12 11 20 30 20 49 0 28 4 33 30 39 16 4 34 4
40 0 6 -4 20 5 31 19 24 31 23 30 54 10z m-2041 -979 c6 -22 9 -24 26 -15 12
6 41 8 69 4 l50 -6 7 -55 c5 -44 3 -57 -11 -73 -17 -19 -17 -20 3 -20 12 0 26
-6 31 -12 6 -7 22 -27 36 -45 l26 -32 -26 -40 c-15 -21 -35 -41 -47 -44 -12
-3 -17 -10 -13 -17 4 -6 1 -38 -6 -70 l-13 -59 -52 -7 c-31 -3 -60 -2 -72 5
-17 9 -21 7 -26 -12 -7 -25 -86 -83 -95 -70 -3 5 -21 19 -38 32 -18 12 -36 33
-39 47 -5 19 -9 22 -20 13 -9 -7 -33 -9 -68 -5 l-54 7 -7 55 c-5 44 -3 59 10
73 15 17 14 19 -12 25 -17 3 -38 21 -54 44 l-26 38 28 41 c29 41 53 58 70 47
13 -8 11 10 -2 23 -15 15 -2 124 14 121 7 -1 31 2 55 6 35 6 47 5 63 -10 18
-16 19 -16 19 2 0 10 19 35 42 55 l41 36 43 -28 c23 -16 45 -40 48 -54z"/>
<path d="M9250 7194 c-83 -18 -209 -80 -282 -138 -98 -79 -202 -218 -253 -338
-14 -36 -14 -39 5 -58 31 -31 49 -24 71 28 35 85 53 114 104 170 44 49 126
112 146 112 3 0 9 -28 12 -62 16 -199 137 -314 325 -310 105 1 166 25 228 87
73 73 98 153 92 301 l-4 104 36 -6 c91 -16 199 -48 284 -86 l94 -42 -18 -37
c-30 -57 -131 -179 -191 -230 -81 -68 -141 -107 -236 -151 -109 -51 -199 -67
-393 -69 -219 -2 -119 -19 125 -21 258 -2 325 17 495 143 47 34 153 129 235
211 l150 149 -80 44 c-298 166 -705 251 -945 199z m348 -84 c85 -79 -26 -202
-114 -126 -59 50 -22 146 56 146 23 0 44 -8 58 -20z"/>
<path d="M7490 5110 c-6 -11 -8 -31 -4 -46 8 -32 46 -49 129 -59 l60 -8 -20
23 c-24 27 -133 110 -146 110 -4 0 -13 -9 -19 -20z"/>
<path d="M8143 5103 c-48 -33 -113 -90 -113 -99 0 -10 111 6 146 21 35 14 51
54 34 85 -14 26 -19 25 -67 -7z"/>
<path d="M7320 4429 c128 -32 472 -100 536 -106 65 -6 148 9 404 72 74 18 148
36 164 39 64 15 11 16 -107 1 -129 -16 -362 -36 -432 -37 -101 -1 -293 13
-435 31 -188 25 -230 25 -130 0z"/>
<path d="M7730 4083 c0 -1 38 -14 84 -29 l84 -26 98 27 c55 15 100 28 101 28
1 1 -82 2 -183 2 -101 1 -184 0 -184 -2z"/>
<path d="M5295 4161 c-9 -11 -20 -20 -24 -19 -36 4 -51 -4 -51 -28 0 -14 -7
-32 -15 -40 -8 -9 -15 -19 -15 -24 0 -5 7 -15 15 -24 8 -8 15 -26 15 -40 0
-20 6 -27 28 -32 15 -4 35 -14 45 -22 15 -14 19 -13 35 1 10 10 31 17 45 17
21 0 28 6 33 28 4 15 13 35 21 44 11 13 12 21 3 37 -6 12 -14 21 -18 21 -4 0
-8 12 -7 28 0 21 -5 28 -25 30 -14 2 -34 12 -46 23 -20 19 -21 19 -39 0z m46
-97 c17 -21 0 -49 -32 -49 -24 0 -36 23 -25 51 7 19 40 18 57 -2z"/>
<path d="M10100 4044 c-13 -13 -28 -24 -34 -23 -6 1 -23 1 -38 0 -25 -1 -28
-5 -28 -34 0 -21 -8 -41 -20 -52 -24 -22 -25 -42 -4 -67 10 -10 18 -32 19 -49
3 -35 20 -50 50 -47 10 2 30 -7 42 -20 19 -19 26 -21 43 -12 12 6 23 17 26 24
3 7 18 10 39 8 30 -4 36 -1 45 23 6 16 9 33 7 39 -2 5 8 20 21 31 24 21 24 22
7 48 -9 15 -20 27 -24 27 -4 0 -5 15 -3 34 4 31 1 35 -27 41 -17 3 -35 4 -41
0 -5 -3 -10 0 -10 7 0 7 -11 21 -24 30 -23 16 -24 16 -46 -8z m51 -113 c20
-16 22 -23 14 -47 -11 -32 -55 -45 -81 -23 -20 16 -18 66 4 78 25 15 37 13 63
-8z"/>
<path d="M10541 2743 c-22 -19 -41 -41 -41 -49 0 -17 -12 -18 -27 -3 -7 7 -26
8 -55 3 -23 -5 -48 -8 -55 -7 -17 1 -29 -103 -14 -121 9 -11 6 -15 -17 -19
-18 -4 -37 -20 -53 -44 l-25 -39 23 -38 c13 -20 35 -41 49 -47 22 -8 24 -12
14 -24 -8 -10 -10 -32 -6 -69 l7 -55 55 -7 c35 -4 59 -2 68 5 11 9 15 6 20
-16 3 -17 21 -38 43 -54 l38 -25 37 25 c21 14 41 36 44 49 7 25 15 27 31 11 8
-8 30 -9 65 -5 l54 7 12 53 c7 29 10 60 6 69 -3 10 2 17 14 21 11 4 31 23 44
43 l25 37 -29 43 c-18 26 -37 43 -49 43 -23 0 -23 4 -5 33 11 18 12 31 3 68
-11 46 -12 47 -59 53 -28 4 -56 2 -68 -4 -17 -9 -20 -8 -20 9 0 11 -12 28 -26
38 -14 10 -34 25 -44 34 -16 15 -20 14 -59 -18z m99 -202 c57 -41 63 -116 12
-163 -36 -34 -65 -42 -107 -28 -48 16 -75 53 -75 104 0 95 93 142 170 87z"/>
<path d="M5735 2731 c-3 -6 -17 -11 -31 -11 -18 0 -24 -5 -24 -21 0 -11 -7
-27 -15 -36 -14 -14 -14 -17 1 -34 9 -11 14 -19 10 -19 -4 0 -2 -9 4 -21 6
-11 17 -18 23 -16 7 2 17 -2 24 -9 17 -17 87 7 92 33 2 10 7 23 11 28 5 6 3
27 -3 47 -8 27 -20 41 -42 50 -16 6 -33 13 -37 15 -3 2 -9 -1 -13 -6z m35 -66
c10 -12 10 -18 0 -30 -25 -30 -61 -7 -46 30 3 8 12 15 19 15 8 0 20 -7 27 -15z"/>
<path d="M3613 1773 c-13 -8 -23 -22 -23 -30 0 -10 -5 -11 -16 -5 -8 4 -28 6
-44 4 -31 -4 -46 -37 -35 -73 4 -13 2 -19 -8 -19 -8 0 -22 -11 -31 -25 -15
-23 -15 -27 0 -50 9 -14 21 -25 28 -25 7 0 10 -16 8 -44 -4 -41 -2 -43 27 -49
17 -4 38 -4 46 -1 9 4 15 1 15 -7 0 -8 12 -22 25 -32 25 -18 26 -18 54 10 24
24 35 28 68 25 35 -3 41 -1 46 20 4 12 7 33 7 46 0 12 4 22 10 22 5 0 17 11
25 24 15 23 15 27 0 50 -10 14 -24 26 -32 26 -10 0 -11 5 -4 18 17 31 2 69
-30 76 -16 3 -36 3 -44 0 -9 -4 -15 0 -15 9 0 8 -11 22 -25 31 -29 19 -24 19
-52 -1z m82 -123 c47 -47 9 -134 -59 -134 -61 0 -100 58 -74 112 26 53 90 63
133 22z"/>
<path d="M3660 4974 c-21 -22 -26 -43 -41 -202 -25 -243 -25 -252 5 -252 34 0
88 -40 109 -80 46 -89 -26 -200 -130 -200 -37 0 -36 3 -53 -180 -6 -63 -13
-131 -16 -150 -4 -32 -2 -37 31 -54 20 -11 48 -31 62 -45 17 -17 27 -22 30
-14 3 7 31 29 64 48 67 41 89 68 89 107 0 33 4 34 30 8 28 -28 66 -35 130 -22
31 7 68 12 83 12 23 0 27 4 27 27 0 15 10 55 21 90 18 52 20 69 11 103 -9 35
-8 42 6 46 48 15 64 27 89 66 15 24 36 53 47 66 l20 22 -26 28 c-14 15 -38 47
-53 72 -36 57 -52 69 -93 70 l-34 0 26 31 c36 43 41 71 22 137 -8 31 -13 67
-10 78 5 19 1 22 -48 27 -29 3 -75 9 -101 13 -40 6 -53 3 -77 -15 -38 -27 -40
-27 -40 10 0 45 -29 87 -77 110 -24 11 -51 31 -62 44 l-18 24 -23 -25z"/>
<path d="M2568 4239 c-28 -24 -48 -50 -48 -62 0 -19 -1 -19 -20 -2 -15 14 -28
16 -57 10 -21 -4 -51 -8 -66 -9 -19 -1 -29 -7 -32 -21 -15 -78 -15 -98 0 -121
15 -24 15 -24 -15 -24 -24 0 -35 -8 -56 -42 -15 -24 -31 -46 -36 -49 -17 -11
54 -100 84 -106 32 -6 34 -10 13 -33 -11 -12 -13 -31 -8 -82 l6 -65 61 -6 c44
-4 67 -2 84 9 21 14 22 13 22 -11 0 -25 7 -34 67 -81 30 -24 34 -24 49 -10 9
9 29 23 45 32 19 9 32 25 35 44 6 28 7 28 30 13 18 -11 37 -13 82 -8 l58 6 12
53 c7 28 12 66 12 83 0 21 6 32 19 36 10 2 33 26 51 51 l32 48 -20 21 c-11 12
-25 32 -32 45 -6 13 -25 28 -41 34 -28 10 -29 11 -13 29 13 14 15 29 9 77 l-7
60 -59 12 c-51 11 -62 11 -84 -4 -24 -16 -25 -16 -25 7 0 13 -6 30 -12 38 -13
15 -84 69 -90 69 -2 -1 -24 -19 -50 -41z m94 -197 c8 -10 26 -17 48 -17 35 0
35 -1 35 -43 0 -23 5 -42 10 -42 6 0 18 -11 27 -24 17 -23 16 -25 -6 -49 -13
-14 -28 -43 -33 -64 -9 -37 -10 -38 -51 -37 -24 0 -42 -4 -42 -10 0 -6 -9 -17
-21 -24 -17 -11 -25 -11 -45 3 -13 8 -24 19 -24 24 0 4 -16 8 -36 9 -45 2 -44
1 -47 45 -2 21 -12 46 -26 61 -22 23 -22 25 -6 50 10 14 23 26 29 26 7 0 10
14 8 39 -4 36 -2 38 28 45 18 3 36 4 40 1 5 -3 21 6 35 20 29 26 51 23 77 -13z"/>
<path d="M2592 3928 c-30 -30 3 -77 40 -57 30 16 16 69 -17 69 -6 0 -16 -5
-23 -12z"/>
<path d="M2330 2842 c-14 -13 -44 -40 -67 -61 -32 -28 -43 -46 -43 -66 l0 -28
-22 20 c-35 31 -52 33 -115 17 -32 -8 -68 -13 -79 -11 -20 3 -22 -3 -33 -78
-11 -72 -11 -87 3 -114 l17 -31 -31 0 c-34 0 -55 -19 -103 -95 l-32 -50 31
-47 c46 -71 63 -87 101 -94 l34 -6 -21 -23 c-23 -25 -26 -50 -15 -146 l8 -67
86 -6 c85 -7 121 -2 121 15 0 5 5 9 10 9 6 0 10 -14 10 -30 0 -33 14 -49 92
-105 l47 -34 62 41 c62 41 93 86 81 117 -4 10 8 5 27 -11 37 -31 54 -33 146
-16 55 11 65 16 65 33 0 12 7 43 16 69 10 29 14 65 11 92 -4 36 -2 44 12 44
23 1 55 29 84 77 15 23 31 44 37 48 8 5 4 15 -10 30 -12 13 -36 45 -54 71 -23
36 -41 50 -71 60 -22 6 -34 12 -27 13 7 1 20 17 29 36 15 30 15 42 5 80 -7 25
-12 58 -12 74 0 27 -3 29 -57 36 -93 13 -130 11 -151 -8 -19 -17 -20 -16 -26
22 -6 38 -51 91 -78 91 -5 0 -22 12 -36 28 l-27 27 -25 -23z m53 -282 c15 -7
30 -23 33 -34 4 -19 11 -21 58 -18 l54 4 7 -40 c4 -24 2 -49 -5 -61 -8 -17 -8
-21 3 -21 8 0 27 -16 41 -35 l27 -35 -22 -30 c-13 -16 -29 -30 -37 -30 -8 0
-11 -7 -8 -17 3 -10 0 -37 -7 -59 l-12 -42 -53 2 c-28 0 -52 -2 -52 -6 0 -4
-16 -19 -35 -34 l-35 -26 -35 26 c-19 15 -35 34 -35 42 0 11 -5 12 -17 6 -10
-5 -34 -7 -54 -5 -34 5 -37 8 -43 46 -4 23 -2 45 4 51 14 14 13 26 -4 26 -8 0
-26 14 -39 31 l-25 32 20 33 c17 30 28 37 48 36 3 0 5 21 5 48 0 27 3 52 7 56
4 3 29 8 56 9 38 2 55 9 81 34 19 18 37 30 40 29 3 -2 18 -10 34 -18z"/>
<path d="M2320 2370 c-11 -11 -20 -27 -20 -35 0 -17 35 -55 51 -55 49 0 68 66
27 94 -29 20 -34 20 -58 -4z"/>
<path d="M7885 1790 c-22 -23 -62 -55 -88 -72 -51 -33 -70 -61 -81 -119 l-6
-37 -34 34 c-41 41 -72 43 -183 13 -61 -17 -84 -19 -105 -11 -27 10 -28 9 -28
-21 0 -17 -7 -73 -17 -124 l-16 -93 31 -50 31 -50 -52 0 c-68 0 -88 -15 -133
-101 -21 -39 -48 -78 -61 -86 l-23 -15 31 -37 c17 -20 45 -58 62 -85 40 -62
72 -86 126 -93 l42 -6 -31 -32 c-40 -41 -46 -83 -26 -182 9 -45 14 -92 11
-106 -6 -24 -5 -24 67 -31 40 -3 100 -9 133 -12 53 -5 64 -3 98 20 l37 25 0
-38 c0 -52 34 -98 101 -138 32 -18 68 -46 82 -62 25 -30 25 -30 39 -10 7 11
44 39 83 62 79 48 115 93 115 145 l0 36 28 -26 c56 -53 99 -60 205 -32 34 9
74 13 89 10 27 -5 28 -4 28 38 0 23 9 69 21 102 16 47 20 74 16 132 -5 70 -5
72 18 72 34 0 79 42 130 121 25 38 50 69 56 69 6 0 -5 18 -25 40 -19 22 -49
64 -66 93 -41 73 -61 89 -120 95 l-50 5 40 43 c46 50 51 87 24 167 -9 26 -14
65 -12 87 3 39 2 40 -27 40 -16 0 -57 7 -90 15 -92 22 -144 19 -188 -10 l-37
-26 0 33 c0 18 -9 52 -20 75 -15 34 -30 48 -77 71 -56 29 -96 63 -104 90 -3 8
-19 -3 -44 -28z m75 -420 c19 0 50 -40 50 -65 0 -24 1 -25 26 -12 19 10 39 11
84 4 l58 -9 7 -60 c6 -48 4 -63 -9 -77 -16 -18 -15 -19 13 -29 16 -6 35 -21
41 -34 7 -13 22 -33 33 -45 l20 -22 -37 -46 c-21 -25 -44 -45 -52 -45 -10 0
-13 -10 -12 -32 1 -18 -4 -56 -12 -85 l-14 -52 -54 -7 c-33 -4 -63 -2 -78 5
-32 14 -32 15 -36 -11 -2 -12 -23 -35 -48 -53 l-44 -31 -44 29 c-24 17 -50 43
-56 58 -9 21 -15 26 -23 18 -7 -7 -33 -8 -76 -4 l-65 7 -6 60 c-6 45 -4 65 8
83 14 22 14 23 -12 28 -17 4 -39 22 -59 51 l-33 46 33 48 c24 33 42 48 60 50
29 4 33 12 16 29 -6 6 -8 32 -3 72 6 58 8 61 34 61 15 0 41 5 59 11 25 9 36 8
55 -5 23 -14 24 -14 36 12 6 15 30 41 53 57 40 29 42 30 59 13 10 -10 23 -18
28 -18z"/>
<path d="M7880 1107 c-53 -27 -51 -109 3 -135 32 -15 60 -9 87 21 35 37 22 89
-27 115 -27 15 -32 15 -63 -1z"/>
<path d="M774 1599 c-16 -17 -54 -48 -85 -69 -60 -41 -89 -87 -89 -139 l0 -32
-31 35 c-42 48 -80 54 -171 26 -48 -15 -87 -20 -113 -17 l-40 6 -2 -42 c-1
-23 -8 -78 -15 -121 -12 -78 -12 -80 15 -128 l27 -48 -48 0 c-62 0 -82 -16
-127 -97 -20 -38 -48 -79 -63 -91 -19 -17 -23 -25 -14 -29 7 -3 37 -42 66 -87
57 -88 95 -116 156 -116 l32 0 -37 -41 c-37 -41 -37 -42 -31 -108 4 -36 9 -98
12 -136 l6 -71 31 4 c18 2 70 -3 116 -11 93 -16 130 -11 168 25 l23 21 0 -42
c0 -64 22 -95 100 -141 39 -23 78 -52 87 -66 16 -26 17 -26 32 -6 9 11 48 40
88 66 81 51 102 77 110 136 5 38 6 39 20 20 36 -51 112 -64 221 -36 34 9 72
14 86 10 21 -5 23 -3 19 20 -3 14 7 65 22 112 26 81 29 126 13 193 -2 9 9 17
30 22 42 9 85 49 124 117 16 29 38 58 48 64 16 10 15 14 -15 44 -18 18 -46 56
-63 86 -43 75 -72 99 -126 105 l-46 6 35 38 c47 52 51 76 27 167 -11 43 -18
91 -15 105 5 25 3 27 -28 27 -18 0 -68 7 -110 16 -88 19 -136 14 -172 -20
l-25 -23 -6 47 c-9 65 -41 108 -106 143 -65 34 -90 55 -90 74 0 21 -14 15 -46
-18z m71 -420 c31 -21 48 -40 52 -60 5 -25 8 -27 25 -18 12 6 44 8 83 4 51 -6
64 -11 62 -24 -1 -9 2 -35 7 -59 7 -38 5 -47 -14 -67 l-22 -23 28 -4 c19 -2
38 -18 65 -54 l37 -51 -40 -46 c-22 -26 -46 -47 -53 -47 -8 0 -11 -7 -8 -20 3
-11 0 -47 -8 -79 l-13 -59 -53 -12 c-46 -10 -57 -9 -78 4 -31 21 -33 20 -37
-6 -2 -12 -23 -36 -50 -55 l-46 -34 -47 32 c-32 21 -48 40 -52 60 -4 24 -8 27
-19 18 -13 -11 -130 -6 -141 5 -2 2 -6 32 -10 68 -4 44 -2 67 6 72 17 11 13
26 -7 26 -19 0 -47 26 -75 72 -17 27 -17 29 16 75 23 34 42 49 60 51 24 3 26
6 16 24 -7 12 -8 42 -4 78 l7 58 62 6 c64 7 96 2 97 -18 0 -6 5 3 12 21 9 24
70 84 94 92 1 1 23 -13 48 -30z"/>
<path d="M759 910 c-28 -16 -43 -64 -28 -92 34 -64 104 -64 138 -1 33 62 -47
130 -110 93z"/>
<path d="M5290 1460 c0 -6 -28 -31 -62 -56 -67 -49 -87 -75 -88 -112 l0 -24
-31 26 c-35 30 -60 32 -136 10 -30 -9 -65 -13 -77 -10 -22 5 -23 2 -36 -93
-13 -96 -12 -100 9 -130 l22 -31 -36 0 c-52 0 -72 -14 -100 -70 -14 -27 -35
-58 -47 -69 l-22 -21 21 -22 c11 -13 30 -40 42 -60 30 -50 67 -78 102 -78 35
0 36 -4 4 -42 -14 -16 -25 -40 -25 -53 0 -24 0 -24 38 -8 20 8 90 42 156 75
l118 59 -25 27 c-54 57 -72 153 -42 225 18 44 69 96 112 113 95 40 221 -7 270
-100 l15 -28 45 43 c42 42 193 231 193 243 0 3 -12 6 -27 6 -15 0 -53 5 -86
12 -54 11 -62 11 -97 -8 l-38 -21 -6 36 c-8 51 -30 78 -88 107 -28 14 -53 34
-55 45 -5 20 -23 27 -23 9z"/>
</g>
</svg>
